<svg width="28" height="28" viewBox="0 0 28 28" fill="none" xmlns="http://www.w3.org/2000/svg">
<path d="M22.1667 4.6665H5.83334C4.90509 4.6665 4.01485 5.03525 3.35847 5.69163C2.70209 6.34801 2.33334 7.23825 2.33334 8.1665V19.8332C2.33334 20.7614 2.70209 21.6517 3.35847 22.308C4.01485 22.9644 4.90509 23.3332 5.83334 23.3332H22.1667C23.0949 23.3332 23.9852 22.9644 24.6416 22.308C25.2979 21.6517 25.6667 20.7614 25.6667 19.8332V8.1665C25.6667 7.23825 25.2979 6.34801 24.6416 5.69163C23.9852 5.03525 23.0949 4.6665 22.1667 4.6665V4.6665ZM21.385 6.99984L14 12.5415L6.61501 6.99984H21.385ZM22.1667 20.9998H5.83334C5.52392 20.9998 5.22718 20.8769 5.00839 20.6581C4.78959 20.4393 4.66668 20.1426 4.66668 19.8332V8.45817L13.3 14.9332C13.502 15.0846 13.7476 15.1665 14 15.1665C14.2524 15.1665 14.4981 15.0846 14.7 14.9332L23.3333 8.45817V19.8332C23.3333 20.1426 23.2104 20.4393 22.9916 20.6581C22.7728 20.8769 22.4761 20.9998 22.1667 20.9998Z" fill="#14ADB8"/>
</svg>
