<svg width="30" height="33" viewBox="0 0 30 33" fill="none" xmlns="http://www.w3.org/2000/svg">
<path d="M11.0513 26.8846C3.87179 29.0385 3.87179 23.2949 1 22.5769M21.1026 31.1923V25.6354C21.1564 24.9507 21.0639 24.2624 20.8312 23.6162C20.5985 22.9701 20.2309 22.3808 19.7528 21.8877C24.2615 21.3851 29 19.6764 29 11.8364C28.9996 9.83166 28.2285 7.90378 26.8462 6.45181C27.5007 4.69787 27.4544 2.75918 26.7169 1.03847C26.7169 1.03847 25.0226 0.535908 21.1026 3.1636C17.8115 2.27165 14.3423 2.27165 11.0513 3.1636C7.13128 0.535908 5.43692 1.03847 5.43692 1.03847C4.69941 2.75918 4.65313 4.69787 5.30769 6.45181C3.91505 7.91455 3.14311 9.85986 3.15385 11.8795C3.15385 19.6621 7.89231 21.3708 12.401 21.9308C11.9286 22.4189 11.5643 23.0011 11.3317 23.6394C11.0992 24.2777 11.0036 24.9577 11.0513 25.6354V31.1923" stroke="#14ADB8" stroke-width="2" stroke-linecap="round" stroke-linejoin="round"/>
</svg>
