<svg width="28" height="28" viewBox="0 0 28 28" fill="none" xmlns="http://www.w3.org/2000/svg">
<path d="M23.8117 6.8715L19.145 4.7715H19.0867H18.9467H18.8067H18.515H18.3983H18.2467H18.1883L14 6.64984L9.81166 4.7715H9.75333L9.61333 4.6665H9.47333H9.18166H9.065H8.91333L4.24666 6.7665C4.0139 6.85569 3.81582 7.01709 3.68145 7.22704C3.54709 7.43699 3.48349 7.68445 3.5 7.93317V22.1665C3.50032 22.3617 3.54962 22.5537 3.64338 22.7249C3.73714 22.8961 3.87237 23.0411 4.03666 23.1465C4.22444 23.2678 4.44312 23.3326 4.66666 23.3332C4.83174 23.3324 4.99478 23.2966 5.145 23.2282L9.33333 21.3498L13.5217 23.2282H13.58C13.7115 23.2896 13.8549 23.3215 14 23.3215C14.1451 23.3215 14.2885 23.2896 14.42 23.2282H14.4783L18.6667 21.3498L22.855 23.2282C23.0052 23.2966 23.1683 23.3324 23.3333 23.3332C23.5569 23.3326 23.7756 23.2678 23.9633 23.1465C24.1276 23.0411 24.2629 22.8961 24.3566 22.7249C24.4504 22.5537 24.4997 22.3617 24.5 22.1665V7.93317C24.4995 7.70875 24.4343 7.48923 24.3123 7.30092C24.1902 7.11261 24.0164 6.96352 23.8117 6.8715V6.8715ZM10.5 7.6415L12.8333 8.67984V20.3465L10.5 19.3082V7.6415ZM22.1667 20.3582L19.8333 19.3198V7.65317L22.1667 8.6915V20.3582Z" fill="#14ADB8"/>
</svg>
